<svg width="38" height="38" viewBox="0 0 38 38" fill="none" xmlns="http://www.w3.org/2000/svg">
<path d="M4.75 7.91666V30.0833C4.74992 30.3619 4.82334 30.6356 4.96287 30.8767C5.10239 31.1179 5.30307 31.3179 5.54464 31.4567C5.78621 31.5955 6.06012 31.6681 6.33871 31.6671C6.6173 31.6662 6.89071 31.5917 7.13133 31.4513L26.1313 20.368C26.3705 20.2286 26.569 20.0289 26.7069 19.7889C26.8449 19.5489 26.9175 19.2768 26.9175 19C26.9175 18.7231 26.8449 18.4511 26.7069 18.2111C26.569 17.9711 26.3705 17.7714 26.1313 17.632L7.13133 6.54866C6.89071 6.40825 6.6173 6.33381 6.33871 6.33286C6.06012 6.33192 5.78621 6.4045 5.54464 6.54327C5.30307 6.68205 5.10239 6.8821 4.96287 7.12324C4.82334 7.36438 4.74992 7.63806 4.75 7.91666Z" fill="#1D1D1D"/>
<path d="M31.6667 6.33334C32.0545 6.33339 32.4288 6.47577 32.7186 6.73348C33.0084 6.99118 33.1935 7.34628 33.2389 7.73143L33.25 7.91668V30.0833C33.2495 30.4869 33.095 30.8751 32.818 31.1685C32.541 31.462 32.1623 31.6385 31.7595 31.6622C31.3566 31.6859 30.9599 31.5548 30.6504 31.2958C30.341 31.0367 30.1421 30.6693 30.0944 30.2686L30.0833 30.0833V7.91668C30.0833 7.49675 30.2501 7.09402 30.5471 6.79709C30.844 6.50016 31.2467 6.33334 31.6667 6.33334Z" fill="#1D1D1D"/>
</svg>
