<svg width="50" height="50" viewBox="0 0 50 50" fill="none" xmlns="http://www.w3.org/2000/svg">
<path d="M16 8H13C12.2044 8 11.4413 8.44777 10.8787 9.2448C10.3161 10.0418 10 11.1228 10 12.25V37.75C10 38.8772 10.3161 39.9582 10.8787 40.7552C11.4413 41.5522 12.2044 42 13 42H16C16.7956 42 17.5587 41.5522 18.1213 40.7552C18.6839 39.9582 19 38.8772 19 37.75V12.25C19 11.1228 18.6839 10.0418 18.1213 9.2448C17.5587 8.44777 16.7956 8 16 8Z" fill="#1D1D1D"/>
<path d="M37 8H34C33.2044 8 32.4413 8.44777 31.8787 9.2448C31.3161 10.0418 31 11.1228 31 12.25V37.75C31 38.8772 31.3161 39.9582 31.8787 40.7552C32.4413 41.5522 33.2044 42 34 42H37C37.7956 42 38.5587 41.5522 39.1213 40.7552C39.6839 39.9582 40 38.8772 40 37.75V12.25C40 11.1228 39.6839 10.0418 39.1213 9.2448C38.5587 8.44777 37.7956 8 37 8Z" fill="#1D1D1D"/>
</svg>
