<svg width="38" height="38" viewBox="0 0 38 38" fill="none" xmlns="http://www.w3.org/2000/svg">
<path d="M9 7.5838V29.7505C8.99992 30.0291 9.07334 30.3027 9.21287 30.5439C9.35239 30.785 9.55307 30.9851 9.79464 31.1239C10.0362 31.2626 10.3101 31.3352 10.5887 31.3343C10.8673 31.3333 11.1407 31.2589 11.3813 31.1185L30.3813 20.0351C30.6205 19.8957 30.819 19.6961 30.9569 19.456C31.0949 19.216 31.1675 18.944 31.1675 18.6671C31.1675 18.3903 31.0949 18.1183 30.9569 17.8782C30.819 17.6382 30.6205 17.4385 30.3813 17.2991L11.3813 6.2158C11.1407 6.07539 10.8673 6.00095 10.5887 6.00001C10.3101 5.99906 10.0362 6.07164 9.79464 6.21042C9.55307 6.34919 9.35239 6.54925 9.21287 6.79039C9.07334 7.03153 8.99992 7.30521 9 7.5838Z" fill="#1D1D1D"/>
</svg>
