<svg width="16" height="14" viewBox="0 0 16 14" fill="none" xmlns="http://www.w3.org/2000/svg">
<path d="M10.0349 10.6053H14.8244" stroke="#007AFF" stroke-width="1.14035" stroke-linecap="round" stroke-linejoin="round"/>
<path d="M12.4299 8.21053V13" stroke="#007AFF" stroke-width="1.14035" stroke-linecap="round" stroke-linejoin="round"/>
<path fill-rule="evenodd" clip-rule="evenodd" d="M1.71053 0C0.767064 0 0 0.767064 0 1.71053V10.2632C0 11.2066 0.767064 11.9737 1.71053 11.9737H8.48637C8.30824 11.5139 8.21054 11.014 8.21054 10.4912C8.21054 10.4147 8.21264 10.3387 8.21677 10.2632H5.77303H4.91776H2.35197C2.10609 10.2632 1.88158 10.1215 1.77467 9.89967C1.66776 9.67784 1.69716 9.41324 1.85218 9.22081L3.56271 7.08265C3.68298 6.9303 3.87007 6.84211 4.0625 6.84211C4.25493 6.84211 4.43935 6.9303 4.56229 7.08265L5.27056 7.96731L7.59581 4.55695C7.7134 4.38055 7.91386 4.27632 8.125 4.27632C8.33614 4.27632 8.53392 4.38055 8.65419 4.55695L10.2722 6.92999C10.874 6.5839 11.5718 6.38597 12.3158 6.38597C12.7956 6.38597 13.2562 6.46828 13.6842 6.61956V1.71053C13.6842 0.767064 12.9171 0 11.9737 0H1.71053ZM3.90056 3.90056C3.65998 4.14115 3.33367 4.27632 2.99342 4.27632C2.65318 4.27632 2.32687 4.14115 2.08628 3.90056C1.84569 3.65998 1.71053 3.33367 1.71053 2.99342C1.71053 2.65318 1.84569 2.32687 2.08628 2.08628C2.32687 1.84569 2.65318 1.71053 2.99342 1.71053C3.33367 1.71053 3.65998 1.84569 3.90056 2.08628C4.14115 2.32687 4.27632 2.65318 4.27632 2.99342C4.27632 3.33367 4.14115 3.65998 3.90056 3.90056Z" fill="#007AFF"/>
</svg>
