<svg width="38" height="38" viewBox="0 0 38 38" fill="none" xmlns="http://www.w3.org/2000/svg">
<path d="M33.25 7.91666V30.0833C33.2501 30.3619 33.1767 30.6356 33.0371 30.8767C32.8976 31.1179 32.6969 31.3179 32.4554 31.4567C32.2138 31.5955 31.9399 31.6681 31.6613 31.6671C31.3827 31.6662 31.1093 31.5917 30.8687 31.4513L11.8687 20.368C11.6295 20.2286 11.431 20.0289 11.2931 19.7889C11.1551 19.5489 11.0825 19.2768 11.0825 19C11.0825 18.7231 11.1551 18.4511 11.2931 18.2111C11.431 17.9711 11.6295 17.7714 11.8687 17.632L30.8687 6.54866C31.1093 6.40825 31.3827 6.33381 31.6613 6.33286C31.9399 6.33192 32.2138 6.4045 32.4554 6.54327C32.6969 6.68205 32.8976 6.8821 33.0371 7.12324C33.1767 7.36438 33.2501 7.63806 33.25 7.91666Z" fill="#1D1D1D"/>
<path d="M6.33332 6.33334C5.94551 6.33339 5.57121 6.47577 5.2814 6.73348C4.9916 6.99118 4.80645 7.34628 4.76107 7.73143L4.74999 7.91668V30.0833C4.75044 30.4869 4.90496 30.8751 5.182 31.1685C5.45903 31.462 5.83767 31.6385 6.24053 31.6622C6.6434 31.6859 7.04009 31.5548 7.34956 31.2958C7.65903 31.0367 7.85791 30.6693 7.90557 30.2686L7.91666 30.0833V7.91668C7.91666 7.49675 7.74984 7.09402 7.45291 6.79709C7.15598 6.50016 6.75325 6.33334 6.33332 6.33334Z" fill="#1D1D1D"/>
</svg>
